<svg width="266.957861328125px" height="88.39999999999999px" xmlns="http://www.w3.org/2000/svg" viewBox="116.52106933593751 30.800000000000004 266.957861328125 88.39999999999999" style="background: rgba(0, 0, 0, 0);" preserveAspectRatio="xMidYMid"><defs><filter id="editing-hole" x="-100%" y="-100%" width="300%" height="300%"><feFlood flood-color="#000000" result="black"></feFlood><feMorphology operator="dilate" radius="2" in="SourceGraphic" result="erode"></feMorphology><feGaussianBlur in="erode" stdDeviation="4" result="blur"></feGaussianBlur><feOffset in="blur" dx="2" dy="2" result="offset"></feOffset><feComposite operator="atop" in="offset" in2="black" result="merge"></feComposite><feComposite operator="in" in="merge" in2="SourceGraphic" result="inner-shadow"></feComposite></filter></defs><g filter="url(#editing-hole)"><g transform="translate(159.65745669603348, 94.1200008392334)"><path d="M1.12-2.68L1.12-2.68L1.12-2.68Q1.12-7 3.68-11.24L3.68-11.24L3.68-11.24Q0.72-13.12 0.72-16.80L0.72-16.80L0.72-16.80Q0.72-21.24 4.64-24.68L4.64-24.68L4.64-24.68Q9.04-28.56 16-28.56L16-28.56L16-28.56Q19.20-28.56 22.88-27.64L22.88-27.64L22.88-27.64Q23.72-27.44 30.04-24.54L30.04-24.54L30.04-24.54Q36.36-21.64 39.12-21.64L39.12-21.64L39.12-21.64Q40.96-21.64 41.88-22.68L41.88-22.68L41.88-22.68Q42.36-23.20 42.36-23.80L42.36-23.80L42.36-23.80Q42.36-24.40 41.84-24.88L41.84-24.88L41.84-24.88Q41.56-25.28 41.56-25.40L41.56-25.40L41.56-25.40Q41.56-25.52 41.78-25.52L41.78-25.52L41.78-25.52Q42-25.52 42.54-24.82L42.54-24.82L42.54-24.82Q43.08-24.12 43.08-23.18L43.08-23.18L43.08-23.18Q43.08-22.24 41.82-21.38L41.82-21.38L41.82-21.38Q40.56-20.52 38.64-20.52L38.64-20.52L38.64-20.52Q35.64-20.52 29.32-23.42L29.32-23.42L29.32-23.42Q23-26.32 21.38-26.64L21.38-26.64L21.38-26.64Q19.76-26.96 17.68-26.96L17.68-26.96L17.68-26.96Q9.40-26.96 4.64-21.60L4.64-21.60L4.64-21.60Q4.08-21 3.32-19.18L3.32-19.18L3.32-19.18Q2.56-17.36 2.56-15.68L2.56-15.68L2.56-15.68Q2.56-13.36 4.20-12.08L4.20-12.08L4.20-12.08Q6.28-15.12 9.12-16.92L9.12-16.92L9.12-16.92Q11.96-18.72 14.88-18.72L14.88-18.72L14.88-18.72Q18.48-18.72 18.48-15.92L18.48-15.92L18.48-15.92Q18.48-12.56 14.54-8.62L14.54-8.62L14.54-8.62Q10.60-4.68 7.24-4.68L7.24-4.68L7.24-4.68Q5.08-4.68 5.08-6.52L5.08-6.52L5.08-6.52Q5.08-7.16 5.42-7.64L5.42-7.64L5.42-7.64Q5.76-8.12 6.24-8L6.24-8L6.16-7.08L6.16-7.08Q6.16-6.48 8-6.48L8-6.48L8-6.48Q10.72-6.48 13.74-9.28L13.74-9.28L13.74-9.28Q16.76-12.08 17.40-14.76L17.40-14.76L17.40-14.76Q17.56-15.36 17.56-15.84L17.56-15.84L17.56-15.84Q17.56-17.64 15.26-17.64L15.26-17.64L15.26-17.64Q12.96-17.64 10.50-15.88L10.50-15.88L10.50-15.88Q8.04-14.12 5.88-11.24L5.88-11.24L5.88-11.24Q6.04-11.16 7.12-10.92L7.12-10.92L9.52-10.84L9.52-10.84Q11.28-10.76 11.28-10.44L11.28-10.44L11.28-10.44Q11.28-9.88 9.60-9.88L9.60-9.88L9.60-9.88Q9.48-9.88 9.36-9.88L9.36-9.88L9.36-9.88Q6.92-9.88 5.36-10.48L5.36-10.48L5.36-10.48Q2.28-5.76 2.28-1.80L2.28-1.80L2.28-1.80Q2.28 3.32 6.24 3.32L6.24 3.32L6.24 3.32Q10.72 3.32 15.56-2.92L15.56-2.92L23.40-14.60L23.40-14.60Q27.80-21 31.04-21.16L31.04-21.16L32.56-20.80L32.56-20.80Q33.28-20.40 33.28-19.60L33.28-19.60L33.28-19.60Q33.28-18.80 32.88-18.80L32.88-18.80L31.60-19L31.60-19Q28.84-19 24.52-13.04L24.52-13.04L16.56-1.92L16.56-1.92Q11.44 4.04 6.76 4.04L6.76 4.04L6.76 4.04Q3.56 4.04 2.34 2.32L2.34 2.32L2.34 2.32Q1.12 0.60 1.12-2.68ZM35.92-0.16L35.92-0.16L35.92-0.16Q33.56-0.16 33.56-2.92L33.56-2.92L33.56-2.92Q33.56-4.48 34.66-6.38L34.66-6.38L34.66-6.38Q35.76-8.28 37.36-10.84L37.36-10.84L37.36-10.84Q32.24-8.28 28.08-3.28L28.08-3.28L28.08-3.28Q25.76 0.20 25.36 0.20L25.36 0.20L25.36 0.20Q24.20 0.20 24.20-0.48L24.20-0.48L24.20-0.48Q24.20-0.84 24.68-1.76L24.68-1.76L24.68-1.76Q28.56-8.68 30.56-11.88L30.56-11.88L30.56-11.88Q35.32-19.52 37.28-20.16L37.28-20.16L37.28-20.16Q37.36-20.20 37.44-20.20L37.44-20.20L37.44-20.20Q37.96-20.20 38.16-19.36L38.16-19.36L38.16-19.36Q38.04-18.52 34-13.28L34-13.28L34-13.28Q29.80-7.96 29.24-6.32L29.24-6.32L29.24-6.32Q30.72-7.40 34.40-9.96L34.40-9.96L34.40-9.96Q38.36-12.72 39.64-12.72L39.64-12.72L39.64-12.72Q40.92-12.72 40.92-11.72L40.92-11.72L40.92-11.72Q40.92-11.56 40.90-11.50L40.90-11.50L40.90-11.50Q40.88-11.44 38.12-7.72L38.12-7.72L38.12-7.72Q35.36-4 35.36-2.24L35.36-2.24L35.36-2.24Q35.36-1.32 36.04-1.32L36.04-1.32L36.04-1.32Q38.20-1.40 42.52-6.52L42.52-6.52L42.52-6.52Q42.88-6.88 43.06-6.88L43.06-6.88L43.06-6.88Q43.24-6.88 43.24-6.64L43.24-6.64L43.24-6.64Q43.24-5.84 39.28-2.32L39.28-2.32L39.28-2.32Q36.80-0.16 35.92-0.16ZM43.52 0.52L43.52 0.52L43.52 0.52Q43.08 0.52 42.72 0.40L42.72 0.40L42.72 0.40Q40.16-0.32 40.16-2.48L40.16-2.48L40.16-2.48Q40.16-5.28 43.68-8.96L43.68-8.96L43.68-8.96Q47.20-12.64 50-12.64L50-12.64L50-12.64Q50.92-12.64 51.50-12.14L51.50-12.14L51.50-12.14Q52.08-11.64 52.08-10.92L52.08-10.92L52.08-10.92Q52.08-8.68 48.70-6.64L48.70-6.64L48.70-6.64Q45.32-4.60 43.20-4.60L43.20-4.60L43.20-4.60Q42.88-4.60 42.64-4.68L42.64-4.68L42.64-4.68Q42.04-3.60 42.04-2.40L42.04-2.40L42.04-2.40Q42.04-0.32 44.02-0.32L44.02-0.32L44.02-0.32Q46.00-0.32 49.16-3L49.16-3L49.16-3Q51.60-4.96 53.32-7.16L53.32-7.16L53.32-7.16Q53.68-7.64 53.94-7.64L53.94-7.64L53.94-7.64Q54.20-7.64 54.20-7.40L54.20-7.40L54.20-7.40Q54.20-7.16 53.88-6.72L53.88-6.72L53.88-6.72Q51.72-3.88 48.68-1.68L48.68-1.68L48.68-1.68Q45.64 0.52 43.52 0.52ZM51.08-11L51.08-11L51.08-11Q51.08-11.48 50.06-11.48L50.06-11.48L50.06-11.48Q49.04-11.48 47.16-9.92L47.16-9.92L47.16-9.92Q44.64-7.84 43.24-5.56L43.24-5.56L43.24-5.56Q43.48-5.48 43.76-5.48L43.76-5.48L43.76-5.48Q45.28-5.48 47.82-7.10L47.82-7.10L47.82-7.10Q50.36-8.72 51-10.64L51-10.64L51-10.64Q51.08-10.84 51.08-11ZM88.24-15.84L88.24-15.84L87.96-16.92L87.96-16.92Q87.96-17.24 88.28-17.24L88.28-17.24L88.28-17.24Q88.40-17.24 88.60-17.12L88.60-17.12L88.60-17.12Q89.52-16.44 89.52-15.32L89.52-15.32L89.52-15.32Q89.52-14.20 88.08-13.14L88.08-13.14L88.08-13.14Q86.64-12.08 84.44-12.08L84.44-12.08L84.44-12.08Q83.76-12.08 83.08-12.20L83.08-12.20L83.08-12.20Q80.32-7.12 76.36-2.84L76.36-2.84L76.36-2.84Q71.08 2.76 66.76 2.76L66.76 2.76L66.76 2.76Q60.52 2.76 60.52-4.60L60.52-4.60L60.52-4.60Q60.52-10.68 63.76-14.40L63.76-14.40L63.76-14.40Q66.48-17.60 70-17.60L70-17.60L70-17.60Q70.92-17.60 71.88-17.28L71.88-17.28L71.88-17.28Q74.24-16.36 74.24-13.38L74.24-13.38L74.24-13.38Q74.24-10.40 71.80-7.16L71.80-7.16L71.80-7.16Q69.36-3.92 66.80-3.92L66.80-3.92L66.80-3.92Q63.92-3.92 63.92-7.04L63.92-7.04L63.92-7.04Q63.92-7.92 64.30-8.88L64.30-8.88L64.30-8.88Q64.68-9.84 65.16-9.84L65.16-9.84L65.16-9.84Q65.52-9.84 65.52-9.48L65.52-9.48L65.52-9.48Q65.52-9.28 65.16-8.48L65.16-8.48L65.16-8.48Q64.80-7.68 64.80-7.06L64.80-7.06L64.80-7.06Q64.80-6.44 65.46-5.90L65.46-5.90L65.46-5.90Q66.12-5.36 66.84-5.36L66.84-5.36L66.84-5.36Q69.20-5.36 71.22-8.26L71.22-8.26L71.22-8.26Q73.24-11.16 73.24-13.92L73.24-13.92L73.24-13.92Q73.24-16.04 71.72-16.72L71.72-16.72L71.72-16.72Q71.20-16.92 70.64-16.92L70.64-16.92L70.64-16.92Q67.80-16.92 64.96-13L64.96-13L64.96-13Q62.20-9.04 62.20-4.32L62.20-4.32L62.20-4.32Q62.20-1.72 63.32-0.08L63.32-0.08L63.32-0.08Q64.48 1.60 66.52 1.60L66.52 1.60L66.52 1.60Q71.80 1.60 80.28-12.76L80.28-12.76L80.28-12.76Q75.88-14.08 75.88-17.96L75.88-17.96L75.88-17.96Q75.88-23.12 81.12-26.20L81.12-26.20L81.12-26.20Q84.44-28.12 87.56-28.12L87.56-28.12L87.56-28.12Q90-28.12 91.96-27.32L91.96-27.32L91.96-27.32Q94.72-26.24 94.72-24.04L94.72-24.04L94.72-24.04Q94.72-23.56 94.50-23.12L94.50-23.12L94.50-23.12Q94.28-22.68 94.04-22.68L94.04-22.68L94.04-22.68Q93.52-23.20 92.80-23.20L92.80-23.20L92.80-23.20Q89.40-23.20 83.48-13.08L83.48-13.08L83.48-13.08Q83.80-13.04 84.16-13.04L84.16-13.04L84.16-13.04Q85.52-13.04 86.88-13.84L86.88-13.84L86.88-13.84Q88.24-14.64 88.24-15.84ZM88.52-27L88.52-27L88.52-27Q86.48-27 83.82-25.82L83.82-25.82L83.82-25.82Q81.16-24.64 79.58-22.36L79.58-22.36L79.58-22.36Q78-20.08 78-17.20L78-17.20L78-17.20Q78-14.32 80.96-13.76L80.96-13.76L80.96-13.76Q83.16-17.36 86.64-20.94L86.64-20.94L86.64-20.94Q90.12-24.52 92.44-24.52L92.44-24.52L92.44-24.52Q93.04-24.52 93.48-24.24L93.48-24.24L93.48-24.24Q93.44-25.36 91.92-26.20L91.92-26.20L91.92-26.20Q90.56-27 88.52-27ZM89.16-12.64L89.16-12.64L89.16-12.64Q90.24-12.64 90.24-11.80L90.24-11.80L90.24-11.80Q90.24-11.56 90.12-11.32L90.12-11.32L90.12-11.32Q86.52-6.32 85.80-3.76L85.80-3.76L85.80-3.76Q95.12-13.08 97.12-13.08L97.12-13.08L97.12-13.08Q97.32-13.12 97.48-13.12L97.48-13.12L97.48-13.12Q98.60-13.12 98.60-12.12L98.60-12.12L98.60-12.12Q98.60-11.92 98.52-11.72L98.52-11.72L98.52-11.72Q98.44-11.52 96.92-9.56L96.92-9.56L96.92-9.56Q95.16-7.48 93.94-5.56L93.94-5.56L93.94-5.56Q92.72-3.64 92.72-2.36L92.72-2.36L92.72-2.36Q92.72-1.08 93.28-1.08L93.28-1.08L93.28-1.08Q95.04-1.08 99.40-5.92L99.40-5.92L99.40-5.92Q99.48-6 99.68-6.28L99.68-6.28L99.68-6.28Q100.28-7 100.40-7L100.40-7L100.40-7Q100.52-7 100.52-6.60L100.52-6.60L100.52-6.60Q100.52-6.20 99.96-5.56L99.96-5.56L99.96-5.56Q95 0.08 92.92 0.08L92.92 0.08L92.92 0.08Q90.96 0.08 90.96-2.08L90.96-2.08L90.96-2.08Q90.96-4.24 92.56-7.04L92.56-7.04L95.12-11.20L95.12-11.20Q92.40-9.20 90.28-6.82L90.28-6.82L90.28-6.82Q88.16-4.44 86.42-2.20L86.42-2.20L86.42-2.20Q84.68 0.04 84.40 0.04L84.40 0.04L84.40 0.04Q83.80 0.04 83.46-0.46L83.46-0.46L83.46-0.46Q83.12-0.96 83.12-1.70L83.12-1.70L83.12-1.70Q83.12-2.44 83.64-3.68L83.64-3.68L83.64-3.68Q84.16-4.92 84.96-6.68L84.96-6.68L82.56-4.16L82.56-4.16Q81.68-3.28 81.46-3.28L81.46-3.28L81.46-3.28Q81.24-3.28 81.24-3.54L81.24-3.54L81.24-3.54Q81.24-3.80 81.56-4.12L81.56-4.12L81.56-4.12Q83.04-5.60 84.12-6.96L84.12-6.96L84.12-6.96Q85.16-8.32 88.40-12.16L88.40-12.16L88.40-12.16Q88.76-12.64 89.16-12.64ZM101.92 2.36L103.76-1.92L103.76-1.92Q101.20-0.16 99.68-0.16L99.68-0.16L99.68-0.16Q97.72-0.16 97.72-2.32L97.72-2.32L97.72-2.32Q97.72-4 99.84-6.48L99.84-6.48L99.84-6.48Q101.72-8.56 103.56-9.60L103.56-9.60L103.56-9.60Q107.96-12.04 110.72-12.04L110.72-12.04L110.72-12.04Q111.60-12.04 111.80-11.36L111.80-11.36L111.80-10.08L111.80-10.08Q112.48-9.56 112.48-9.42L112.48-9.42L112.48-9.42Q112.48-9.28 112.36-9.12L112.36-9.12L109.20-6.12L109.20-6.12Q106.20-3.04 105.08-0.48L105.08-0.48L105.08-0.48Q105.32-0.56 106.40-0.56L106.40-0.56L106.40-0.56Q107.48-0.56 108.08 0.38L108.08 0.38L108.08 0.38Q108.68 1.32 108.68 2.24L108.68 2.24L108.68 2.24Q108.68 4.16 107 6.76L107 6.76L107 6.76Q105.16 9.68 103 9.68L103 9.68L103 9.68Q100.92 9.68 100.92 6.60L100.92 6.60L100.92 6.60Q100.92 4.72 101.92 2.36L101.92 2.36ZM109.76-10.04L109.76-10.04L109.76-10.04Q107.72-10.04 103.62-7.38L103.62-7.38L103.62-7.38Q99.52-4.72 98.96-1.96L98.96-1.96L98.96-1.96Q98.92-1.84 98.92-1.72L98.92-1.72L98.92-1.72Q98.92-0.96 99.88-0.96L99.88-0.96L99.88-0.96Q101.88-0.96 105.24-4.44L105.24-4.44L110.28-9.80L110.28-9.80Q110.20-10.04 109.76-10.04ZM104.68 0.36L104.68 0.36L104.68 0.36Q103.92 1.56 103.04 3.80L103.04 3.80L103.04 3.80Q102.16 6.04 102.16 6.84L102.16 6.84L102.16 6.84Q102.16 7.64 102.48 8.26L102.48 8.26L102.48 8.26Q102.80 8.88 103.36 8.88L103.36 8.88L103.36 8.88Q104.84 8.88 105.96 6.32L105.96 6.32L105.96 6.32Q107.08 3.76 107.08 2.48L107.08 2.48L107.08 2.48Q107.08 1.20 106.52 0.80L106.52 0.80L106.52 0.80Q105.96 0.40 104.68 0.36ZM123.32 0.24L123.32 0.24L123.32 0.24Q123.12 0.28 122.46 0.28L122.46 0.28L122.46 0.28Q121.80 0.28 121.14-0.24L121.14-0.24L121.14-0.24Q120.48-0.76 120.48-1.58L120.48-1.58L120.48-1.58Q120.48-2.40 120.78-3.40L120.78-3.40L120.78-3.40Q121.08-4.40 121.20-4.92L121.20-4.92L121.20-4.92Q116.60 0.44 114 0.44L114 0.44L114 0.44Q112.36 0.44 112.20-1.60L112.20-1.60L112.20-1.60Q112.20-1.76 112.20-1.88L112.20-1.88L112.20-1.88Q112.20-3.60 114.28-6.52L114.28-6.52L114.28-6.52Q113.12-5.48 111.92-4.12L111.92-4.12L111.92-4.12Q111.76-3.96 111.52-3.96L111.52-3.96L111.52-3.96Q111.36-3.96 111.36-4.16L111.36-4.16L111.36-4.16Q111.36-4.36 111.72-4.84L111.72-4.84L117.24-11.32L117.24-11.32Q118.28-12.52 119.36-12.52L119.36-12.52L119.36-12.52Q120.44-12.52 120.44-11.80L120.44-11.80L120.44-11.80Q120.44-11.52 120.20-11.28L120.20-11.28L120.20-11.28Q118.60-9.80 116.18-6.36L116.18-6.36L116.18-6.36Q113.76-2.92 113.76-1.28L113.76-1.28L113.76-1.28Q113.76-0.56 114.24-0.56L114.24-0.56L114.24-0.56Q115.92-0.56 119.12-3.88L119.12-3.88L119.12-3.88Q120.24-5 123.28-8.82L123.28-8.82L123.28-8.82Q126.32-12.64 127.28-12.64L127.28-12.64L127.28-12.64Q128.72-12.64 128.72-11.52L128.72-11.52L128.72-11.52Q128.72-11.12 127.04-9.20L127.04-9.20L127.04-9.20Q124.76-6.44 123.56-4.70L123.56-4.70L123.56-4.70Q122.36-2.96 122.36-1.88L122.36-1.88L122.36-1.88Q122.36-0.80 122.96-0.80L122.96-0.80L122.96-0.80Q123.24-0.80 123.60-0.96L123.60-0.96L123.60-0.96Q126.36-2.16 130.20-6.56L130.20-6.56L130.20-6.56Q130.44-6.84 130.68-6.84L130.68-6.84L130.68-6.84Q130.92-6.84 130.92-6.58L130.92-6.58L130.92-6.58Q130.92-6.32 130.64-6L130.64-6L130.64-6Q128.92-4 126.60-1.98L126.60-1.98L126.60-1.98Q124.28 0.04 123.32 0.24ZM137.80-16.32L137.80-16.32Q138.40-16.32 138.94-15.94L138.94-15.94L138.94-15.94Q139.48-15.56 139.48-15.04L139.48-15.04L139.48-15.04Q139.48-14.52 138.98-14.14L138.98-14.14L138.98-14.14Q138.48-13.76 137.88-13.76L137.88-13.76L137.88-13.76Q137.28-13.76 136.78-14.20L136.78-14.20L136.78-14.20Q136.28-14.64 136.28-15.20L136.28-15.20L136.28-15.20Q136.28-16.32 137.80-16.32L137.80-16.32ZM130.56 0.44L130.56 0.44L130.56 0.44Q128.52 0.44 128.52-2.20L128.52-2.20L128.52-2.20Q128.52-4.36 130.88-8.18L130.88-8.18L130.88-8.18Q133.24-12 134.68-12.04L134.68-12.04L134.68-12.04Q135.08-12.04 135.58-11.72L135.58-11.72L135.58-11.72Q136.08-11.40 136.08-11.08L136.08-11.08L136.08-11.08Q135.88-10.80 135.60-10.46L135.60-10.46L135.60-10.46Q135.32-10.12 135-9.72L135-9.72L135-9.72Q134.68-9.32 134.12-8.58L134.12-8.58L134.12-8.58Q133.56-7.84 133.04-7.16L133.04-7.16L133.04-7.16Q130.04-3.28 130.04-1.82L130.04-1.82L130.04-1.82Q130.04-0.36 131.04-0.36L131.04-0.36L131.04-0.36Q131.88-0.36 133.32-1.28L133.32-1.28L133.32-1.28Q136.68-3.36 138.64-5.84L138.64-5.84L138.64-5.84Q139.36-6.76 139.62-6.76L139.62-6.76L139.62-6.76Q139.88-6.76 139.88-6.44L139.88-6.44L139.88-6.44Q139.88-6.12 138.96-5.16L138.96-5.16L138.96-5.16Q138.04-4.20 137.50-3.64L137.50-3.64L137.50-3.64Q136.96-3.08 136.76-2.90L136.76-2.90L136.76-2.90Q136.56-2.72 136.02-2.22L136.02-2.22L136.02-2.22Q135.48-1.72 135.20-1.52L135.20-1.52L135.20-1.52Q134.92-1.32 134.40-0.92L134.40-0.92L134.40-0.92Q133.88-0.52 133.48-0.34L133.48-0.34L133.48-0.34Q133.08-0.16 132.56 0.08L132.56 0.08L132.56 0.08Q131.72 0.44 130.56 0.44ZM146.32 0.20L146.32 0.20L146.32 0.20Q143.32 0.20 143.32-3.12L143.32-3.12L143.32-3.12Q143.32-4.80 144.20-6.80L144.20-6.80L144.20-6.80Q145.08-8.80 146.12-10.16L146.12-10.16L146.12-10.16Q145.92-10.12 145.60-10.12L145.60-10.12L145.60-10.12Q144.64-10.12 144-11.48L144-11.48L141.04-7.64L141.04-7.64Q138.56-4.56 138.16-4.56L138.16-4.56L138.16-4.56Q137.96-4.56 137.96-4.72L137.96-4.72L137.96-4.72Q137.96-5.12 138.64-5.88L138.64-5.88L138.64-5.88Q142.12-9.92 143.56-12.72L143.56-12.72L143.56-12.72Q144.48-16.20 145.88-16.20L145.88-16.20L145.88-16.20Q146.80-16.20 146.80-15.40L146.80-15.40L146.80-15.40Q146.80-14.60 145.80-13.36L145.80-13.36L144.84-12.08L144.84-12.08Q144.84-11.24 146.08-11.24L146.08-11.24L146.08-11.24Q146.80-11.24 147.68-11.76L147.68-11.76L148.72-12.40L148.72-12.40Q148.80-12.44 149.12-12.44L149.12-12.44L149.12-12.44Q149.44-12.44 149.80-12.04L149.80-12.04L149.80-12.04Q150.16-11.64 150.04-11.32L150.04-11.32L147.28-7.84L147.28-7.84Q144.72-4.56 144.72-2.66L144.72-2.66L144.72-2.66Q144.72-0.76 146.48-0.76L146.48-0.76L146.48-0.76Q148.32-0.76 151-2.72L151-2.72L151-2.72Q152.60-3.88 153.92-5.32L153.92-5.32L153.92-5.32Q155.16-6.76 155.28-6.76L155.28-6.76L155.28-6.76Q155.56-6.76 155.56-6.46L155.56-6.46L155.56-6.46Q155.56-6.16 155.20-5.76L155.20-5.76L153.92-4.32L153.92-4.32Q152.84-3.20 151.52-2.16L151.52-2.16L151.52-2.16Q148.36 0.20 146.32 0.20ZM155.96 0.52L155.96 0.52L155.96 0.52Q155.52 0.52 155.16 0.40L155.16 0.40L155.16 0.40Q152.60-0.32 152.60-2.48L152.60-2.48L152.60-2.48Q152.60-5.28 156.12-8.96L156.12-8.96L156.12-8.96Q159.64-12.64 162.44-12.64L162.44-12.64L162.44-12.64Q163.36-12.64 163.94-12.14L163.94-12.14L163.94-12.14Q164.52-11.64 164.52-10.92L164.52-10.92L164.52-10.92Q164.52-8.68 161.14-6.64L161.14-6.64L161.14-6.64Q157.76-4.60 155.64-4.60L155.64-4.60L155.64-4.60Q155.32-4.60 155.08-4.68L155.08-4.68L155.08-4.68Q154.48-3.60 154.48-2.40L154.48-2.40L154.48-2.40Q154.48-0.32 156.46-0.32L156.46-0.32L156.46-0.32Q158.44-0.32 161.60-3L161.60-3L161.60-3Q164.04-4.96 165.76-7.16L165.76-7.16L165.76-7.16Q166.12-7.64 166.38-7.64L166.38-7.64L166.38-7.64Q166.64-7.64 166.64-7.40L166.64-7.40L166.64-7.40Q166.64-7.16 166.32-6.72L166.32-6.72L166.32-6.72Q164.16-3.88 161.12-1.68L161.12-1.68L161.12-1.68Q158.08 0.52 155.96 0.52ZM163.52-11L163.52-11L163.52-11Q163.52-11.48 162.50-11.48L162.50-11.48L162.50-11.48Q161.48-11.48 159.60-9.92L159.60-9.92L159.60-9.92Q157.08-7.84 155.68-5.56L155.68-5.56L155.68-5.56Q155.92-5.48 156.20-5.48L156.20-5.48L156.20-5.48Q157.72-5.48 160.26-7.10L160.26-7.10L160.26-7.10Q162.80-8.72 163.44-10.64L163.44-10.64L163.44-10.64Q163.52-10.84 163.52-11ZM172.36 0.20L172.36 0.20L172.36 0.20Q169.36 0.20 169.36-3.12L169.36-3.12L169.36-3.12Q169.36-4.80 170.24-6.80L170.24-6.80L170.24-6.80Q171.12-8.80 172.16-10.16L172.16-10.16L172.16-10.16Q171.96-10.12 171.64-10.12L171.64-10.12L171.64-10.12Q170.68-10.12 170.04-11.48L170.04-11.48L167.08-7.64L167.08-7.64Q164.60-4.56 164.20-4.56L164.20-4.56L164.20-4.56Q164-4.56 164-4.72L164-4.72L164-4.72Q164-5.12 164.68-5.88L164.68-5.88L164.68-5.88Q168.16-9.92 169.60-12.72L169.60-12.72L169.60-12.72Q170.52-16.20 171.92-16.20L171.92-16.20L171.92-16.20Q172.84-16.20 172.84-15.40L172.84-15.40L172.84-15.40Q172.84-14.60 171.84-13.36L171.84-13.36L170.88-12.08L170.88-12.08Q170.88-11.24 172.12-11.24L172.12-11.24L172.12-11.24Q172.84-11.24 173.72-11.76L173.72-11.76L174.76-12.40L174.76-12.40Q174.84-12.44 175.16-12.44L175.16-12.44L175.16-12.44Q175.48-12.44 175.84-12.04L175.84-12.04L175.84-12.04Q176.20-11.64 176.08-11.32L176.08-11.32L173.32-7.84L173.32-7.84Q170.76-4.56 170.76-2.66L170.76-2.66L170.76-2.66Q170.76-0.76 172.52-0.76L172.52-0.76L172.52-0.76Q174.36-0.76 177.04-2.72L177.04-2.72L177.04-2.72Q178.64-3.88 179.96-5.32L179.96-5.32L179.96-5.32Q181.20-6.76 181.32-6.76L181.32-6.76L181.32-6.76Q181.60-6.76 181.60-6.46L181.60-6.46L181.60-6.46Q181.60-6.16 181.24-5.76L181.24-5.76L179.96-4.32L179.96-4.32Q178.88-3.20 177.56-2.16L177.56-2.16L177.56-2.16Q174.40 0.20 172.36 0.20Z" fill="#000000"></path></g></g><style>text {
  font-size: 64px;
  font-family: Arial Black;
  dominant-baseline: central;
  text-anchor: middle;
}</style></svg>