<svg width="531.8663208007813px" height="88.39999999999999px" xmlns="http://www.w3.org/2000/svg" viewBox="-15.933160400390648 30.800000000000004 531.8663208007813 88.39999999999999" style="background: rgba(0, 0, 0, 0);" preserveAspectRatio="xMidYMid"><defs><filter id="editing-hole" x="-100%" y="-100%" width="300%" height="300%"><feFlood flood-color="#000000" result="black"></feFlood><feMorphology operator="dilate" radius="2" in="SourceGraphic" result="erode"></feMorphology><feGaussianBlur in="erode" stdDeviation="4" result="blur"></feGaussianBlur><feOffset in="blur" dx="2" dy="2" result="offset"></feOffset><feComposite operator="atop" in="offset" in2="black" result="merge"></feComposite><feComposite operator="in" in="merge" in2="SourceGraphic" result="inner-shadow"></feComposite></filter></defs><g filter="url(#editing-hole)"><g transform="translate(62.257104218006134, 94.1200008392334)"><path d="M1.12-2.68L1.12-2.68L1.12-2.68Q1.12-7 3.68-11.24L3.68-11.24L3.68-11.24Q0.72-13.12 0.72-16.80L0.72-16.80L0.72-16.80Q0.72-21.24 4.64-24.68L4.64-24.68L4.64-24.68Q9.04-28.56 16-28.56L16-28.56L16-28.56Q19.20-28.56 22.88-27.64L22.88-27.64L22.88-27.64Q23.72-27.44 30.04-24.54L30.04-24.54L30.04-24.54Q36.36-21.64 39.12-21.64L39.12-21.64L39.12-21.64Q40.96-21.64 41.88-22.68L41.88-22.68L41.88-22.68Q42.36-23.20 42.36-23.80L42.36-23.80L42.36-23.80Q42.36-24.40 41.84-24.88L41.84-24.88L41.84-24.88Q41.56-25.28 41.56-25.40L41.56-25.40L41.56-25.40Q41.56-25.52 41.78-25.52L41.78-25.52L41.78-25.52Q42-25.52 42.54-24.82L42.54-24.82L42.54-24.82Q43.08-24.12 43.08-23.18L43.08-23.18L43.08-23.18Q43.08-22.24 41.82-21.38L41.82-21.38L41.82-21.38Q40.56-20.52 38.64-20.52L38.64-20.52L38.64-20.52Q35.64-20.52 29.32-23.42L29.32-23.42L29.32-23.42Q23-26.32 21.38-26.64L21.38-26.64L21.38-26.64Q19.76-26.96 17.68-26.96L17.68-26.96L17.68-26.96Q9.40-26.96 4.64-21.60L4.64-21.60L4.64-21.60Q4.08-21 3.32-19.18L3.32-19.18L3.32-19.18Q2.56-17.36 2.56-15.68L2.56-15.68L2.56-15.68Q2.56-13.36 4.20-12.08L4.20-12.08L4.20-12.08Q6.28-15.12 9.12-16.92L9.12-16.92L9.12-16.92Q11.96-18.72 14.88-18.72L14.88-18.72L14.88-18.72Q18.48-18.72 18.48-15.92L18.48-15.92L18.48-15.92Q18.48-12.56 14.54-8.62L14.54-8.62L14.54-8.62Q10.60-4.68 7.24-4.68L7.24-4.68L7.24-4.68Q5.08-4.68 5.08-6.52L5.08-6.52L5.08-6.52Q5.08-7.16 5.42-7.64L5.42-7.64L5.42-7.64Q5.76-8.12 6.24-8L6.24-8L6.16-7.08L6.16-7.08Q6.16-6.48 8-6.48L8-6.48L8-6.48Q10.72-6.48 13.74-9.28L13.74-9.28L13.74-9.28Q16.76-12.08 17.40-14.76L17.40-14.76L17.40-14.76Q17.56-15.36 17.56-15.84L17.56-15.84L17.56-15.84Q17.56-17.64 15.26-17.64L15.26-17.64L15.26-17.64Q12.96-17.64 10.50-15.88L10.50-15.88L10.50-15.88Q8.04-14.12 5.88-11.24L5.88-11.24L5.88-11.24Q6.04-11.16 7.12-10.92L7.12-10.92L9.52-10.84L9.52-10.84Q11.28-10.76 11.28-10.44L11.28-10.44L11.28-10.44Q11.28-9.88 9.60-9.88L9.60-9.88L9.60-9.88Q9.48-9.88 9.36-9.88L9.36-9.88L9.36-9.88Q6.92-9.88 5.36-10.48L5.36-10.48L5.36-10.48Q2.28-5.76 2.28-1.80L2.28-1.80L2.28-1.80Q2.28 3.32 6.24 3.32L6.24 3.32L6.24 3.32Q10.72 3.32 15.56-2.92L15.56-2.92L23.40-14.60L23.40-14.60Q27.80-21 31.04-21.16L31.04-21.16L32.56-20.80L32.56-20.80Q33.28-20.40 33.28-19.60L33.28-19.60L33.28-19.60Q33.28-18.80 32.88-18.80L32.88-18.80L31.60-19L31.60-19Q28.84-19 24.52-13.04L24.52-13.04L16.56-1.92L16.56-1.92Q11.44 4.04 6.76 4.04L6.76 4.04L6.76 4.04Q3.56 4.04 2.34 2.32L2.34 2.32L2.34 2.32Q1.12 0.60 1.12-2.68ZM35.92-0.16L35.92-0.16L35.92-0.16Q33.56-0.16 33.56-2.92L33.56-2.92L33.56-2.92Q33.56-4.48 34.66-6.38L34.66-6.38L34.66-6.38Q35.76-8.28 37.36-10.84L37.36-10.84L37.36-10.84Q32.24-8.28 28.08-3.28L28.08-3.28L28.08-3.28Q25.76 0.20 25.36 0.20L25.36 0.20L25.36 0.20Q24.20 0.20 24.20-0.48L24.20-0.48L24.20-0.48Q24.20-0.84 24.68-1.76L24.68-1.76L24.68-1.76Q28.56-8.68 30.56-11.88L30.56-11.88L30.56-11.88Q35.32-19.52 37.28-20.16L37.28-20.16L37.28-20.16Q37.36-20.20 37.44-20.20L37.44-20.20L37.44-20.20Q37.96-20.20 38.16-19.36L38.16-19.36L38.16-19.36Q38.04-18.52 34-13.28L34-13.28L34-13.28Q29.80-7.96 29.24-6.32L29.24-6.32L29.24-6.32Q30.72-7.40 34.40-9.96L34.40-9.96L34.40-9.96Q38.36-12.72 39.64-12.72L39.64-12.72L39.64-12.72Q40.92-12.72 40.92-11.72L40.92-11.72L40.92-11.72Q40.92-11.56 40.90-11.50L40.90-11.50L40.90-11.50Q40.88-11.44 38.12-7.72L38.12-7.72L38.12-7.72Q35.36-4 35.36-2.24L35.36-2.24L35.36-2.24Q35.36-1.32 36.04-1.32L36.04-1.32L36.04-1.32Q38.20-1.40 42.52-6.52L42.52-6.52L42.52-6.52Q42.88-6.88 43.06-6.88L43.06-6.88L43.06-6.88Q43.24-6.88 43.24-6.64L43.24-6.64L43.24-6.64Q43.24-5.84 39.28-2.32L39.28-2.32L39.28-2.32Q36.80-0.16 35.92-0.16ZM43.52 0.52L43.52 0.52L43.52 0.52Q43.08 0.52 42.72 0.40L42.72 0.40L42.72 0.40Q40.16-0.32 40.16-2.48L40.16-2.48L40.16-2.48Q40.16-5.28 43.68-8.96L43.68-8.96L43.68-8.96Q47.20-12.64 50-12.64L50-12.64L50-12.64Q50.92-12.64 51.50-12.14L51.50-12.14L51.50-12.14Q52.08-11.64 52.08-10.92L52.08-10.92L52.08-10.92Q52.08-8.68 48.70-6.64L48.70-6.64L48.70-6.64Q45.32-4.60 43.20-4.60L43.20-4.60L43.20-4.60Q42.88-4.60 42.64-4.68L42.64-4.68L42.64-4.68Q42.04-3.60 42.04-2.40L42.04-2.40L42.04-2.40Q42.04-0.32 44.02-0.32L44.02-0.32L44.02-0.32Q46.00-0.32 49.16-3L49.16-3L49.16-3Q51.60-4.96 53.32-7.16L53.32-7.16L53.32-7.16Q53.68-7.64 53.94-7.64L53.94-7.64L53.94-7.64Q54.20-7.64 54.20-7.40L54.20-7.40L54.20-7.40Q54.20-7.16 53.88-6.72L53.88-6.72L53.88-6.72Q51.72-3.88 48.68-1.68L48.68-1.68L48.68-1.68Q45.64 0.52 43.52 0.52ZM51.08-11L51.08-11L51.08-11Q51.08-11.48 50.06-11.48L50.06-11.48L50.06-11.48Q49.04-11.48 47.16-9.92L47.16-9.92L47.16-9.92Q44.64-7.84 43.24-5.56L43.24-5.56L43.24-5.56Q43.48-5.48 43.76-5.48L43.76-5.48L43.76-5.48Q45.28-5.48 47.82-7.10L47.82-7.10L47.82-7.10Q50.36-8.72 51-10.64L51-10.64L51-10.64Q51.08-10.84 51.08-11ZM107.52-17.88L107.52-17.88L107.52-17.88Q107.52-15.84 105.48-13.40L105.48-13.40L105.48-13.40Q103.44-10.96 99.30-9.44L99.30-9.44L99.30-9.44Q95.16-7.92 91.26-7.92L91.26-7.92L91.26-7.92Q87.36-7.92 85.08-8.92L85.08-8.92L85.08-8.92Q80.04-1.52 78.52 0L78.52 0L78.52 0Q74.20 4.32 68.20 4.32L68.20 4.32L68.20 4.32Q64.80 4.32 63.10 2.74L63.10 2.74L63.10 2.74Q61.40 1.16 61.40-1.36L61.40-1.36L61.40-1.36Q61.40-4.84 64.20-7.92L64.20-7.92L64.20-7.92Q67.28-11.32 71.96-11.32L71.96-11.32L71.96-11.32Q73.88-11.32 75.20-10.44L75.20-10.44L75.20-10.44Q76.52-9.56 76.52-7.76L76.52-7.76L76.52-7.76Q76.52-6.56 75.16-4.88L75.16-4.88L75.16-4.88Q73.80-3.20 73.48-3.20L73.48-3.20L73.48-3.20Q73.40-3.20 73.40-3.36L73.40-3.36L73.40-3.36Q73.40-3.52 73.52-3.68L73.52-3.68L73.52-3.68Q74.80-5.56 74.80-7.14L74.80-7.14L74.80-7.14Q74.80-8.72 73.82-9.58L73.82-9.58L73.82-9.58Q72.84-10.44 71.40-10.44L71.40-10.44L71.40-10.44Q68.04-10.44 65.46-7.38L65.46-7.38L65.46-7.38Q62.88-4.32 62.88-1.20L62.88-1.20L62.88-1.20Q62.88 0.80 64.14 2.04L64.14 2.04L64.14 2.04Q65.40 3.28 68.04 3.28L68.04 3.28L68.04 3.28Q72.96 3.28 76.48-0.04L76.48-0.04L76.48-0.04Q78.52-1.96 80.60-5.64L80.60-5.64L84.08-11.92L84.08-11.92Q86.64-16.04 90.04-24.16L90.04-24.16L90.04-24.16Q89.68-24.16 89.32-24.16L89.32-24.16L89.32-24.16Q83.92-24.16 78.48-22.98L78.48-22.98L78.48-22.98Q73.04-21.80 70.24-19.60L70.24-19.60L70.24-19.60Q69.04-18.68 69.04-17.80L69.04-17.80L69.04-17.80Q69.04-16.92 69.98-16.38L69.98-16.38L69.98-16.38Q70.92-15.84 72.20-15.84L72.20-15.84L72.20-15.84Q73.48-15.84 75.38-16.34L75.38-16.34L75.38-16.34Q77.28-16.84 78.24-17.68L78.24-17.68L78.24-17.68Q78.64-18 78.80-18L78.80-18L78.80-18Q79.12-18 78.92-17.68L78.92-17.68L78.92-17.68Q77.48-16 74.56-15.16L74.56-15.16L74.56-15.16Q72.76-14.64 71-14.64L71-14.64L71-14.64Q69.24-14.64 68.12-15.42L68.12-15.42L68.12-15.42Q67-16.20 67-17.54L67-17.54L67-17.54Q67-18.88 68.44-20.24L68.44-20.24L68.44-20.24Q71.16-22.88 78.16-24.16L78.16-24.16L78.16-24.16Q83.12-25.04 89.56-25.04L89.56-25.04L89.56-25.04Q90.08-25.04 90.64-25.04L90.64-25.04L90.64-25.04Q91.52-25.80 92.24-25.80L92.24-25.80L92.24-25.80Q92.96-25.80 92.96-25.24L92.96-25.24L92.96-25.24Q92.96-25.12 92.92-24.96L92.92-24.96L92.92-24.96Q99.12-24.52 102.96-22.88L102.96-22.88L102.96-22.88Q107.52-20.96 107.52-17.88ZM105.64-18.28L105.64-18.28L105.64-18.28Q105.64-20.80 101.56-22.40L101.56-22.40L101.56-22.40Q98-23.80 92.64-24.08L92.64-24.08L91.36-20.08L91.36-20.08Q89.84-16.32 85.52-9.60L85.52-9.60L85.52-9.60Q85.92-9.40 86.88-9.16L86.88-9.16L86.88-9.16Q88.48-8.88 89.36-8.88L89.36-8.88L89.36-8.88Q92.40-8.88 96.36-10.14L96.36-10.14L96.36-10.14Q100.32-11.40 102.98-13.82L102.98-13.82L102.98-13.82Q105.64-16.24 105.64-18.28ZM111.44-0.16L111.44-0.16L111.44-0.16Q109.08-0.16 109.08-2.92L109.08-2.92L109.08-2.92Q109.08-4.48 110.18-6.38L110.18-6.38L110.18-6.38Q111.28-8.28 112.88-10.84L112.88-10.84L112.88-10.84Q107.76-8.28 103.60-3.28L103.60-3.28L103.60-3.28Q101.28 0.20 100.88 0.20L100.88 0.20L100.88 0.20Q99.72 0.20 99.72-0.48L99.72-0.48L99.72-0.48Q99.72-0.84 100.20-1.76L100.20-1.76L100.20-1.76Q104.08-8.68 106.08-11.88L106.08-11.88L106.08-11.88Q110.84-19.52 112.80-20.16L112.80-20.16L112.80-20.16Q112.88-20.20 112.96-20.20L112.96-20.20L112.96-20.20Q113.48-20.20 113.68-19.36L113.68-19.36L113.68-19.36Q113.56-18.52 109.52-13.28L109.52-13.28L109.52-13.28Q105.32-7.96 104.76-6.32L104.76-6.32L104.76-6.32Q106.24-7.40 109.92-9.96L109.92-9.96L109.92-9.96Q113.88-12.72 115.16-12.72L115.16-12.72L115.16-12.72Q116.44-12.72 116.44-11.72L116.44-11.72L116.44-11.72Q116.44-11.56 116.42-11.50L116.42-11.50L116.42-11.50Q116.40-11.44 113.64-7.72L113.64-7.72L113.64-7.72Q110.88-4 110.88-2.24L110.88-2.24L110.88-2.24Q110.88-1.32 111.56-1.32L111.56-1.32L111.56-1.32Q113.72-1.40 118.04-6.52L118.04-6.52L118.04-6.52Q118.40-6.88 118.58-6.88L118.58-6.88L118.58-6.88Q118.76-6.88 118.76-6.64L118.76-6.64L118.76-6.64Q118.76-5.84 114.80-2.32L114.80-2.32L114.80-2.32Q112.32-0.16 111.44-0.16ZM125.68-16.32L125.68-16.32Q126.28-16.32 126.82-15.94L126.82-15.94L126.82-15.94Q127.36-15.56 127.36-15.04L127.36-15.04L127.36-15.04Q127.36-14.52 126.86-14.14L126.86-14.14L126.86-14.14Q126.36-13.76 125.76-13.76L125.76-13.76L125.76-13.76Q125.16-13.76 124.66-14.20L124.66-14.20L124.66-14.20Q124.16-14.64 124.16-15.20L124.16-15.20L124.16-15.20Q124.16-16.32 125.68-16.32L125.68-16.32ZM118.44 0.44L118.44 0.44L118.44 0.44Q116.40 0.44 116.40-2.20L116.40-2.20L116.40-2.20Q116.40-4.36 118.76-8.18L118.76-8.18L118.76-8.18Q121.12-12 122.56-12.04L122.56-12.04L122.56-12.04Q122.96-12.04 123.46-11.72L123.46-11.72L123.46-11.72Q123.96-11.40 123.96-11.08L123.96-11.08L123.96-11.08Q123.76-10.80 123.48-10.46L123.48-10.46L123.48-10.46Q123.20-10.12 122.88-9.72L122.88-9.72L122.88-9.72Q122.56-9.32 122.00-8.58L122.00-8.58L122.00-8.58Q121.44-7.84 120.92-7.16L120.92-7.16L120.92-7.16Q117.92-3.28 117.92-1.82L117.92-1.82L117.92-1.82Q117.92-0.36 118.92-0.36L118.92-0.36L118.92-0.36Q119.76-0.36 121.20-1.28L121.20-1.28L121.20-1.28Q124.56-3.36 126.52-5.84L126.52-5.84L126.52-5.84Q127.24-6.76 127.50-6.76L127.50-6.76L127.50-6.76Q127.76-6.76 127.76-6.44L127.76-6.44L127.76-6.44Q127.76-6.12 126.84-5.16L126.84-5.16L126.84-5.16Q125.92-4.20 125.38-3.64L125.38-3.64L125.38-3.64Q124.84-3.08 124.64-2.90L124.64-2.90L124.64-2.90Q124.44-2.72 123.90-2.22L123.90-2.22L123.90-2.22Q123.36-1.72 123.08-1.52L123.08-1.52L123.08-1.52Q122.80-1.32 122.28-0.92L122.28-0.92L122.28-0.92Q121.76-0.52 121.36-0.34L121.36-0.34L121.36-0.34Q120.96-0.16 120.44 0.08L120.44 0.08L120.44 0.08Q119.60 0.44 118.44 0.44ZM127.60-2L127.60-2L127.60-2Q127.60-0.80 128.92-0.80L128.92-0.80L128.92-0.80Q130.24-0.80 132.32-2.20L132.32-2.20L132.32-2.20Q134.40-3.60 136.36-6L136.36-6L136.36-6Q136.84-6.64 137.12-6.64L137.12-6.64L137.12-6.64Q137.40-6.64 137.40-6.40L137.40-6.40L137.40-6.40Q137.40-6.16 135.76-4.32L135.76-4.32L135.76-4.32Q131.76 0.08 129.08 0.08L129.08 0.08L129.08 0.08Q127.76 0.08 126.84-0.54L126.84-0.54L126.84-0.54Q125.92-1.16 125.92-2.46L125.92-2.46L125.92-2.46Q125.92-3.76 126.60-5.48L126.60-5.48L126.60-5.48Q127.76-8.20 130.32-12.32L130.32-12.32L130.32-12.32Q135.00-19.92 136.96-19.92L136.96-19.92L136.96-19.92Q137.36-19.92 137.78-19.62L137.78-19.62L137.78-19.62Q138.20-19.32 138.24-18.96L138.24-18.96L138.24-18.96Q137.32-17.72 134.70-14.20L134.70-14.20L134.70-14.20Q132.08-10.68 131.08-9.14L131.08-9.14L131.08-9.14Q130.08-7.60 129.58-6.84L129.58-6.84L129.58-6.84Q129.08-6.08 128.84-5.66L128.84-5.66L128.84-5.66Q128.60-5.24 128.28-4.56L128.28-4.56L128.28-4.56Q127.60-3.20 127.60-2ZM149.04-11.96L149.04-11.96L149.60-12.08L149.60-12.08Q150.04-12.08 150.44-11.72L150.44-11.72L150.44-11.72Q150.84-11.36 150.84-11.16L150.84-11.16L150.84-11.16Q150.84-10.96 148.36-7.30L148.36-7.30L148.36-7.30Q145.88-3.64 145.88-2.20L145.88-2.20L145.88-2.20Q145.88-2.08 145.92-1.96L145.92-1.96L145.92-1.96Q146.12-1.04 146.80-1.04L146.80-1.04L146.80-1.04Q148.88-1.04 154.40-7.92L154.40-7.92L154.40-7.92Q154.52-8.08 154.68-8.08L154.68-8.08L154.68-8.08Q154.84-8.08 154.84-7.78L154.84-7.78L154.84-7.78Q154.84-7.48 154.48-7L154.48-7L154.48-7Q149.36-0.16 146.68-0.16L146.68-0.16L146.68-0.16Q146.32-0.16 146.00-0.28L146.00-0.28L146.00-0.28Q144.24-0.96 144.24-2.92L144.24-2.92L144.24-2.92Q144.24-3.60 144.40-4.28L144.40-4.28L141.92-1.88L141.92-1.88Q139.56 0.20 138.50 0.20L138.50 0.20L138.50 0.20Q137.44 0.20 136.48-0.48L136.48-0.48L136.48-0.48Q135.40-1.28 135.40-2.60L135.40-2.60L135.40-2.60Q135.40-5.52 139.48-9.58L139.48-9.58L139.48-9.58Q143.56-13.64 146.96-13.64L146.96-13.64L146.96-13.64Q148.28-13.64 148.72-12.72L148.72-12.72L148.72-12.72Q148.84-12.40 148.92-12.18L148.92-12.18L148.92-12.18Q149.00-11.96 149.04-11.96ZM137.08-2.12L137.08-2.12L137.08-2.12Q137.08-0.68 138.08-0.68L138.08-0.68L138.08-0.68Q140.40-0.68 144.40-5.76L144.40-5.76L148.64-11.60L148.64-11.60Q148.32-12.16 147.60-12.16L147.60-12.16L147.60-12.16Q145.16-12.16 141.12-8.38L141.12-8.38L141.12-8.38Q137.08-4.60 137.08-2.12ZM165.36-12.12L165.36-12.12L165.36-12.12Q169.84-19.40 171.60-19.40L171.60-19.40L171.60-19.40Q171.88-19.40 172.38-19.22L172.38-19.22L172.38-19.22Q172.88-19.04 172.88-18.68L172.88-18.68L172.88-18.68Q172.88-18.48 172.68-18.16L172.68-18.16L172.68-18.16Q169.48-14.24 167.92-12.28L167.92-12.28L167.92-12.28Q163.20-6.32 162.72-3.72L162.72-3.72L162.72-3.72Q162.60-3.16 162.60-2.60L162.60-2.60L162.60-2.60Q162.60-0.80 164.08-0.80L164.08-0.80L164.08-0.80Q167.04-0.80 171.80-6.28L171.80-6.28L171.80-6.28Q172.20-6.68 172.48-6.74L172.48-6.74L172.48-6.74Q172.76-6.80 172.76-6.60L172.76-6.60L172.76-6.60Q172.76-6.40 172.52-6.12L172.52-6.12L172.52-6.12Q167.88-0.56 164.28 0.08L164.28 0.08L164.28 0.08Q164.08 0.12 163.72 0.12L163.72 0.12L163.72 0.12Q162.48 0.12 161.86-0.74L161.86-0.74L161.86-0.74Q161.24-1.60 161.24-2.60L161.24-2.60L161.24-2.60Q161.24-3.72 161.68-5.08L161.68-5.08L158.44-1.84L158.44-1.84Q156.24 0.20 154.98 0.20L154.98 0.20L154.98 0.20Q153.72 0.20 152.88-0.48L152.88-0.48L152.88-0.48Q151.88-1.24 151.88-2.60L151.88-2.60L151.88-2.60Q151.88-5.52 155.96-9.58L155.96-9.58L155.96-9.58Q160.04-13.64 163.44-13.64L163.44-13.64L163.44-13.64Q164.56-13.64 165-13.04L165-13.04L165-13.04Q165.16-12.84 165.36-12.12ZM153.56-2.12L153.56-2.12L153.56-2.12Q153.56-0.68 154.56-0.68L154.56-0.68L154.56-0.68Q156.28-0.68 160.28-5.40L160.28-5.40L160.28-5.40Q161-6.24 165.08-11.68L165.08-11.68L165.08-11.68Q164.80-12.16 164.12-12.16L164.12-12.16L164.12-12.16Q161.64-12.16 157.60-8.38L157.60-8.38L157.60-8.38Q153.56-4.60 153.56-2.12ZM172.96 0.52L172.96 0.52L172.96 0.52Q172.52 0.52 172.16 0.40L172.16 0.40L172.16 0.40Q169.60-0.32 169.60-2.48L169.60-2.48L169.60-2.48Q169.60-5.28 173.12-8.96L173.12-8.96L173.12-8.96Q176.64-12.64 179.44-12.64L179.44-12.64L179.44-12.64Q180.36-12.64 180.94-12.14L180.94-12.14L180.94-12.14Q181.52-11.64 181.52-10.92L181.52-10.92L181.52-10.92Q181.52-8.68 178.14-6.64L178.14-6.64L178.14-6.64Q174.76-4.60 172.64-4.60L172.64-4.60L172.64-4.60Q172.32-4.60 172.08-4.68L172.08-4.68L172.08-4.68Q171.48-3.60 171.48-2.40L171.48-2.40L171.48-2.40Q171.48-0.32 173.46-0.32L173.46-0.32L173.46-0.32Q175.44-0.32 178.60-3L178.60-3L178.60-3Q181.04-4.96 182.76-7.16L182.76-7.16L182.76-7.16Q183.12-7.64 183.38-7.64L183.38-7.64L183.38-7.64Q183.64-7.64 183.64-7.40L183.64-7.40L183.64-7.40Q183.64-7.16 183.32-6.72L183.32-6.72L183.32-6.72Q181.16-3.88 178.12-1.68L178.12-1.68L178.12-1.68Q175.08 0.52 172.96 0.52ZM180.52-11L180.52-11L180.52-11Q180.52-11.48 179.50-11.48L179.50-11.48L179.50-11.48Q178.48-11.48 176.60-9.92L176.60-9.92L176.60-9.92Q174.08-7.84 172.68-5.56L172.68-5.56L172.68-5.56Q172.92-5.48 173.20-5.48L173.20-5.48L173.20-5.48Q174.72-5.48 177.26-7.10L177.26-7.10L177.26-7.10Q179.80-8.72 180.44-10.64L180.44-10.64L180.44-10.64Q180.52-10.84 180.52-11ZM182.76-2L182.76-2L182.76-2Q182.76-0.80 184.08-0.80L184.08-0.80L184.08-0.80Q185.40-0.80 187.48-2.20L187.48-2.20L187.48-2.20Q189.56-3.60 191.52-6L191.52-6L191.52-6Q192.00-6.64 192.28-6.64L192.28-6.64L192.28-6.64Q192.56-6.64 192.56-6.40L192.56-6.40L192.56-6.40Q192.56-6.16 190.92-4.32L190.92-4.32L190.92-4.32Q186.92 0.08 184.24 0.08L184.24 0.08L184.24 0.08Q182.92 0.08 182.00-0.54L182.00-0.54L182.00-0.54Q181.08-1.16 181.08-2.46L181.08-2.46L181.08-2.46Q181.08-3.76 181.76-5.48L181.76-5.48L181.76-5.48Q182.92-8.20 185.48-12.32L185.48-12.32L185.48-12.32Q190.16-19.92 192.12-19.92L192.12-19.92L192.12-19.92Q192.52-19.92 192.94-19.62L192.94-19.62L192.94-19.62Q193.36-19.32 193.40-18.96L193.40-18.96L193.40-18.96Q192.48-17.72 189.86-14.20L189.86-14.20L189.86-14.20Q187.24-10.68 186.24-9.14L186.24-9.14L186.24-9.14Q185.24-7.60 184.74-6.84L184.74-6.84L184.74-6.84Q184.24-6.08 184.00-5.66L184.00-5.66L184.00-5.66Q183.76-5.24 183.44-4.56L183.44-4.56L183.44-4.56Q182.76-3.20 182.76-2ZM206.00-9.04L206.00-9.04L206.00-9.04Q206.00-5.80 202.30-2.90L202.30-2.90L202.30-2.90Q198.60 0 195.88 0L195.88 0L195.88 0Q194.08 0 193.26-0.24L193.26-0.24L193.26-0.24Q192.44-0.48 191.44-1.68L191.44-1.68L191.44-1.68Q190.76-1.12 189.60 1.18L189.60 1.18L189.60 1.18Q188.44 3.48 188.44 5.12L188.44 5.12L188.44 5.12Q188.44 5.88 189.20 7.12L189.20 7.12L189.20 7.12Q189.28 7.32 189.08 7.46L189.08 7.46L189.08 7.46Q188.88 7.60 188.78 7.60L188.78 7.60L188.78 7.60Q188.68 7.60 188.60 7.56L188.60 7.56L188.60 7.56Q186.92 6.64 186.92 3.98L186.92 3.98L186.92 3.98Q186.92 1.32 191.34-5.22L191.34-5.22L191.34-5.22Q195.76-11.76 197.44-12.32L197.44-12.32L197.44-12.32Q197.84-12.40 197.96-12.40L197.96-12.40L197.96-12.40Q198.64-12.40 198.64-10.92L198.64-10.92L198.64-10.92Q199.04-11.32 200.28-11.68L200.28-11.68L200.28-11.68Q201.80-12.08 202.44-12.08L202.44-12.08L202.44-12.08Q203.88-12.08 204.94-11.26L204.94-11.26L204.94-11.26Q206.00-10.44 206.00-9.04ZM203.96-9.44L203.96-9.44L203.96-9.44Q203.96-10.96 202.16-10.96L202.16-10.96L202.16-10.96Q200.36-10.96 198.88-10.20L198.88-10.20L198.88-10.20Q198.20-9.88 195.12-6.68L195.12-6.68L195.12-6.68Q192.04-3.48 192.04-2.56L192.04-2.56L192.04-2.56Q192.04-1.84 193.14-1.48L193.14-1.48L193.14-1.48Q194.24-1.12 195.36-1.12L195.36-1.12L195.36-1.12Q197.56-1.12 200.76-3.62L200.76-3.62L200.76-3.62Q203.96-6.12 203.96-9.44ZM215.48-0.16L215.48-0.16L215.48-0.16Q213.12-0.16 213.12-2.92L213.12-2.92L213.12-2.92Q213.12-4.48 214.22-6.38L214.22-6.38L214.22-6.38Q215.32-8.28 216.92-10.84L216.92-10.84L216.92-10.84Q211.80-8.28 207.64-3.28L207.64-3.28L207.64-3.28Q205.32 0.20 204.92 0.20L204.92 0.20L204.92 0.20Q203.76 0.20 203.76-0.48L203.76-0.48L203.76-0.48Q203.76-0.84 204.24-1.76L204.24-1.76L204.24-1.76Q208.12-8.68 210.12-11.88L210.12-11.88L210.12-11.88Q214.88-19.52 216.84-20.16L216.84-20.16L216.84-20.16Q216.92-20.20 217.00-20.20L217.00-20.20L217.00-20.20Q217.52-20.20 217.72-19.36L217.72-19.36L217.72-19.36Q217.60-18.52 213.56-13.28L213.56-13.28L213.56-13.28Q209.36-7.96 208.80-6.32L208.80-6.32L208.80-6.32Q210.28-7.40 213.96-9.96L213.96-9.96L213.96-9.96Q217.92-12.72 219.20-12.72L219.20-12.72L219.20-12.72Q220.48-12.72 220.48-11.72L220.48-11.72L220.48-11.72Q220.48-11.56 220.46-11.50L220.46-11.50L220.46-11.50Q220.44-11.44 217.68-7.72L217.68-7.72L217.68-7.72Q214.92-4 214.92-2.24L214.92-2.24L214.92-2.24Q214.92-1.32 215.60-1.32L215.60-1.32L215.60-1.32Q217.76-1.40 222.08-6.52L222.08-6.52L222.08-6.52Q222.44-6.88 222.62-6.88L222.62-6.88L222.62-6.88Q222.80-6.88 222.80-6.64L222.80-6.64L222.80-6.64Q222.80-5.84 218.84-2.32L218.84-2.32L218.84-2.32Q216.36-0.16 215.48-0.16ZM229.72-16.32L229.72-16.32Q230.32-16.32 230.86-15.94L230.86-15.94L230.86-15.94Q231.40-15.56 231.40-15.04L231.40-15.04L231.40-15.04Q231.40-14.52 230.90-14.14L230.90-14.14L230.90-14.14Q230.40-13.76 229.80-13.76L229.80-13.76L229.80-13.76Q229.20-13.76 228.70-14.20L228.70-14.20L228.70-14.20Q228.20-14.64 228.20-15.20L228.20-15.20L228.20-15.20Q228.20-16.32 229.72-16.32L229.72-16.32ZM222.48 0.44L222.48 0.44L222.48 0.44Q220.44 0.44 220.44-2.20L220.44-2.20L220.44-2.20Q220.44-4.36 222.80-8.18L222.80-8.18L222.80-8.18Q225.16-12 226.60-12.04L226.60-12.04L226.60-12.04Q227.00-12.04 227.50-11.72L227.50-11.72L227.50-11.72Q228.00-11.40 228.00-11.08L228.00-11.08L228.00-11.08Q227.80-10.80 227.52-10.46L227.52-10.46L227.52-10.46Q227.24-10.12 226.92-9.72L226.92-9.72L226.92-9.72Q226.60-9.32 226.04-8.58L226.04-8.58L226.04-8.58Q225.48-7.84 224.96-7.16L224.96-7.16L224.96-7.16Q221.96-3.28 221.96-1.82L221.96-1.82L221.96-1.82Q221.96-0.36 222.96-0.36L222.96-0.36L222.96-0.36Q223.80-0.36 225.24-1.28L225.24-1.28L225.24-1.28Q228.60-3.36 230.56-5.84L230.56-5.84L230.56-5.84Q231.28-6.76 231.54-6.76L231.54-6.76L231.54-6.76Q231.80-6.76 231.80-6.44L231.80-6.44L231.80-6.44Q231.80-6.12 230.88-5.16L230.88-5.16L230.88-5.16Q229.96-4.20 229.42-3.64L229.42-3.64L229.42-3.64Q228.88-3.08 228.68-2.90L228.68-2.90L228.68-2.90Q228.48-2.72 227.94-2.22L227.94-2.22L227.94-2.22Q227.40-1.72 227.12-1.52L227.12-1.52L227.12-1.52Q226.84-1.32 226.32-0.92L226.32-0.92L226.32-0.92Q225.80-0.52 225.40-0.34L225.40-0.34L225.40-0.34Q225.00-0.16 224.48 0.08L224.48 0.08L224.48 0.08Q223.64 0.44 222.48 0.44ZM243.36-11.96L243.36-11.96L243.92-12.08L243.92-12.08Q244.36-12.08 244.76-11.72L244.76-11.72L244.76-11.72Q245.16-11.36 245.16-11.16L245.16-11.16L245.16-11.16Q245.16-10.96 242.68-7.30L242.68-7.30L242.68-7.30Q240.20-3.64 240.20-2.20L240.20-2.20L240.20-2.20Q240.20-2.08 240.24-1.96L240.24-1.96L240.24-1.96Q240.44-1.04 241.12-1.04L241.12-1.04L241.12-1.04Q243.20-1.04 248.72-7.92L248.72-7.92L248.72-7.92Q248.84-8.08 249-8.08L249-8.08L249-8.08Q249.16-8.08 249.16-7.78L249.16-7.78L249.16-7.78Q249.16-7.48 248.80-7L248.80-7L248.80-7Q243.68-0.16 241-0.16L241-0.16L241-0.16Q240.64-0.16 240.32-0.28L240.32-0.28L240.32-0.28Q238.56-0.96 238.56-2.92L238.56-2.92L238.56-2.92Q238.56-3.60 238.72-4.28L238.72-4.28L236.24-1.88L236.24-1.88Q233.88 0.20 232.82 0.20L232.82 0.20L232.82 0.20Q231.76 0.20 230.80-0.48L230.80-0.48L230.80-0.48Q229.72-1.28 229.72-2.60L229.72-2.60L229.72-2.60Q229.72-5.52 233.80-9.58L233.80-9.58L233.80-9.58Q237.88-13.64 241.28-13.64L241.28-13.64L241.28-13.64Q242.60-13.64 243.04-12.72L243.04-12.72L243.04-12.72Q243.16-12.40 243.24-12.18L243.24-12.18L243.24-12.18Q243.32-11.96 243.36-11.96ZM231.40-2.12L231.40-2.12L231.40-2.12Q231.40-0.68 232.40-0.68L232.40-0.68L232.40-0.68Q234.72-0.68 238.72-5.76L238.72-5.76L242.96-11.60L242.96-11.60Q242.64-12.16 241.92-12.16L241.92-12.16L241.92-12.16Q239.48-12.16 235.44-8.38L235.44-8.38L235.44-8.38Q231.40-4.60 231.40-2.12ZM283.04-15.84L283.04-15.84L282.76-16.92L282.76-16.92Q282.76-17.24 283.08-17.24L283.08-17.24L283.08-17.24Q283.20-17.24 283.40-17.12L283.40-17.12L283.40-17.12Q284.32-16.44 284.32-15.32L284.32-15.32L284.32-15.32Q284.32-14.20 282.88-13.14L282.88-13.14L282.88-13.14Q281.44-12.08 279.24-12.08L279.24-12.08L279.24-12.08Q278.56-12.08 277.88-12.20L277.88-12.20L277.88-12.20Q275.12-7.12 271.16-2.84L271.16-2.84L271.16-2.84Q265.88 2.76 261.56 2.76L261.56 2.76L261.56 2.76Q255.32 2.76 255.32-4.60L255.32-4.60L255.32-4.60Q255.32-10.68 258.56-14.40L258.56-14.40L258.56-14.40Q261.28-17.60 264.80-17.60L264.80-17.60L264.80-17.60Q265.72-17.60 266.68-17.28L266.68-17.28L266.68-17.28Q269.04-16.36 269.04-13.38L269.04-13.38L269.04-13.38Q269.04-10.40 266.60-7.16L266.60-7.16L266.60-7.16Q264.16-3.92 261.60-3.92L261.60-3.92L261.60-3.92Q258.72-3.92 258.72-7.04L258.72-7.04L258.72-7.04Q258.72-7.92 259.10-8.88L259.10-8.88L259.10-8.88Q259.48-9.84 259.96-9.84L259.96-9.84L259.96-9.84Q260.32-9.84 260.32-9.48L260.32-9.48L260.32-9.48Q260.32-9.28 259.96-8.48L259.96-8.48L259.96-8.48Q259.60-7.68 259.60-7.06L259.60-7.06L259.60-7.06Q259.60-6.44 260.26-5.90L260.26-5.90L260.26-5.90Q260.92-5.36 261.64-5.36L261.64-5.36L261.64-5.36Q264-5.36 266.02-8.26L266.02-8.26L266.02-8.26Q268.04-11.16 268.04-13.92L268.04-13.92L268.04-13.92Q268.04-16.04 266.52-16.72L266.52-16.72L266.52-16.72Q266-16.92 265.44-16.92L265.44-16.92L265.44-16.92Q262.60-16.92 259.76-13L259.76-13L259.76-13Q257-9.04 257-4.32L257-4.32L257-4.32Q257-1.72 258.12-0.08L258.12-0.08L258.12-0.08Q259.28 1.60 261.32 1.60L261.32 1.60L261.32 1.60Q266.60 1.60 275.08-12.76L275.08-12.76L275.08-12.76Q270.68-14.08 270.68-17.96L270.68-17.96L270.68-17.96Q270.68-23.12 275.92-26.20L275.92-26.20L275.92-26.20Q279.24-28.12 282.36-28.12L282.36-28.12L282.36-28.12Q284.80-28.12 286.76-27.32L286.76-27.32L286.76-27.32Q289.52-26.24 289.52-24.04L289.52-24.04L289.52-24.04Q289.52-23.56 289.30-23.12L289.30-23.12L289.30-23.12Q289.08-22.68 288.84-22.68L288.84-22.68L288.84-22.68Q288.32-23.20 287.60-23.20L287.60-23.20L287.60-23.20Q284.20-23.20 278.28-13.08L278.28-13.08L278.28-13.08Q278.60-13.04 278.96-13.04L278.96-13.04L278.96-13.04Q280.32-13.04 281.68-13.84L281.68-13.84L281.68-13.84Q283.04-14.64 283.04-15.84ZM283.32-27L283.32-27L283.32-27Q281.28-27 278.62-25.82L278.62-25.82L278.62-25.82Q275.96-24.64 274.38-22.36L274.38-22.36L274.38-22.36Q272.80-20.08 272.80-17.20L272.80-17.20L272.80-17.20Q272.80-14.32 275.76-13.76L275.76-13.76L275.76-13.76Q277.96-17.36 281.44-20.94L281.44-20.94L281.44-20.94Q284.92-24.52 287.24-24.52L287.24-24.52L287.24-24.52Q287.84-24.52 288.28-24.24L288.28-24.24L288.28-24.24Q288.24-25.36 286.72-26.20L286.72-26.20L286.72-26.20Q285.36-27 283.32-27ZM283.96-12.64L283.96-12.64L283.96-12.64Q285.04-12.64 285.04-11.80L285.04-11.80L285.04-11.80Q285.04-11.56 284.92-11.32L284.92-11.32L284.92-11.32Q281.32-6.32 280.60-3.76L280.60-3.76L280.60-3.76Q289.92-13.08 291.92-13.08L291.92-13.08L291.92-13.08Q292.12-13.12 292.28-13.12L292.28-13.12L292.28-13.12Q293.40-13.12 293.40-12.12L293.40-12.12L293.40-12.12Q293.40-11.92 293.32-11.72L293.32-11.72L293.32-11.72Q293.24-11.52 291.72-9.56L291.72-9.56L291.72-9.56Q289.96-7.48 288.74-5.56L288.74-5.56L288.74-5.56Q287.52-3.64 287.52-2.36L287.52-2.36L287.52-2.36Q287.52-1.08 288.08-1.08L288.08-1.08L288.08-1.08Q289.84-1.08 294.20-5.92L294.20-5.92L294.20-5.92Q294.28-6 294.48-6.28L294.48-6.28L294.48-6.28Q295.08-7 295.20-7L295.20-7L295.20-7Q295.32-7 295.32-6.60L295.32-6.60L295.32-6.60Q295.32-6.20 294.76-5.56L294.76-5.56L294.76-5.56Q289.80 0.08 287.72 0.08L287.72 0.08L287.72 0.08Q285.76 0.08 285.76-2.08L285.76-2.08L285.76-2.08Q285.76-4.24 287.36-7.04L287.36-7.04L289.92-11.20L289.92-11.20Q287.20-9.20 285.08-6.82L285.08-6.82L285.08-6.82Q282.96-4.44 281.22-2.20L281.22-2.20L281.22-2.20Q279.48 0.04 279.20 0.04L279.20 0.04L279.20 0.04Q278.60 0.04 278.26-0.46L278.26-0.46L278.26-0.46Q277.92-0.96 277.92-1.70L277.92-1.70L277.92-1.70Q277.92-2.44 278.44-3.68L278.44-3.68L278.44-3.68Q278.96-4.92 279.76-6.68L279.76-6.68L277.36-4.16L277.36-4.16Q276.48-3.28 276.26-3.28L276.26-3.28L276.26-3.28Q276.04-3.28 276.04-3.54L276.04-3.54L276.04-3.54Q276.04-3.80 276.36-4.12L276.36-4.12L276.36-4.12Q277.84-5.60 278.92-6.96L278.92-6.96L278.92-6.96Q279.96-8.32 283.20-12.16L283.20-12.16L283.20-12.16Q283.56-12.64 283.96-12.64ZM296.72 2.36L298.56-1.92L298.56-1.92Q296-0.16 294.48-0.16L294.48-0.16L294.48-0.16Q292.52-0.16 292.52-2.32L292.52-2.32L292.52-2.32Q292.52-4 294.64-6.48L294.64-6.48L294.64-6.48Q296.52-8.56 298.36-9.60L298.36-9.60L298.36-9.60Q302.76-12.04 305.52-12.04L305.52-12.04L305.52-12.04Q306.40-12.04 306.60-11.36L306.60-11.36L306.60-10.08L306.60-10.08Q307.28-9.56 307.28-9.42L307.28-9.42L307.28-9.42Q307.28-9.28 307.16-9.12L307.16-9.12L304-6.12L304-6.12Q301-3.04 299.88-0.48L299.88-0.48L299.88-0.48Q300.12-0.56 301.20-0.56L301.20-0.56L301.20-0.56Q302.28-0.56 302.88 0.38L302.88 0.38L302.88 0.38Q303.48 1.32 303.48 2.24L303.48 2.24L303.48 2.24Q303.48 4.16 301.80 6.76L301.80 6.76L301.80 6.76Q299.96 9.68 297.80 9.68L297.80 9.68L297.80 9.68Q295.72 9.68 295.72 6.60L295.72 6.60L295.72 6.60Q295.72 4.72 296.72 2.36L296.72 2.36ZM304.56-10.04L304.56-10.04L304.56-10.04Q302.52-10.04 298.42-7.38L298.42-7.38L298.42-7.38Q294.32-4.72 293.76-1.96L293.76-1.96L293.76-1.96Q293.72-1.84 293.72-1.72L293.72-1.72L293.72-1.72Q293.72-0.96 294.68-0.96L294.68-0.96L294.68-0.96Q296.68-0.96 300.04-4.44L300.04-4.44L305.08-9.80L305.08-9.80Q305-10.04 304.56-10.04ZM299.48 0.36L299.48 0.36L299.48 0.36Q298.72 1.56 297.84 3.80L297.84 3.80L297.84 3.80Q296.96 6.04 296.96 6.84L296.96 6.84L296.96 6.84Q296.96 7.64 297.28 8.26L297.28 8.26L297.28 8.26Q297.60 8.88 298.16 8.88L298.16 8.88L298.16 8.88Q299.64 8.88 300.76 6.32L300.76 6.32L300.76 6.32Q301.88 3.76 301.88 2.48L301.88 2.48L301.88 2.48Q301.88 1.20 301.32 0.80L301.32 0.80L301.32 0.80Q300.76 0.40 299.48 0.36ZM318.12 0.24L318.12 0.24L318.12 0.24Q317.92 0.28 317.26 0.28L317.26 0.28L317.26 0.28Q316.60 0.28 315.94-0.24L315.94-0.24L315.94-0.24Q315.28-0.76 315.28-1.58L315.28-1.58L315.28-1.58Q315.28-2.40 315.58-3.40L315.58-3.40L315.58-3.40Q315.88-4.40 316.00-4.92L316.00-4.92L316.00-4.92Q311.40 0.44 308.80 0.44L308.80 0.44L308.80 0.44Q307.16 0.44 307.00-1.60L307.00-1.60L307.00-1.60Q307.00-1.76 307.00-1.88L307.00-1.88L307.00-1.88Q307.00-3.60 309.08-6.52L309.08-6.52L309.08-6.52Q307.92-5.48 306.72-4.12L306.72-4.12L306.72-4.12Q306.56-3.96 306.32-3.96L306.32-3.96L306.32-3.96Q306.16-3.96 306.16-4.16L306.16-4.16L306.16-4.16Q306.16-4.36 306.52-4.84L306.52-4.84L312.04-11.32L312.04-11.32Q313.08-12.52 314.16-12.52L314.16-12.52L314.16-12.52Q315.24-12.52 315.24-11.80L315.24-11.80L315.24-11.80Q315.24-11.52 315.00-11.28L315.00-11.28L315.00-11.28Q313.40-9.80 310.98-6.36L310.98-6.36L310.98-6.36Q308.56-2.92 308.56-1.28L308.56-1.28L308.56-1.28Q308.56-0.56 309.04-0.56L309.04-0.56L309.04-0.56Q310.72-0.56 313.92-3.88L313.92-3.88L313.92-3.88Q315.04-5 318.08-8.82L318.08-8.82L318.08-8.82Q321.12-12.64 322.08-12.64L322.08-12.64L322.08-12.64Q323.52-12.64 323.52-11.52L323.52-11.52L323.52-11.52Q323.52-11.12 321.84-9.20L321.84-9.20L321.84-9.20Q319.56-6.44 318.36-4.70L318.36-4.70L318.36-4.70Q317.16-2.96 317.16-1.88L317.16-1.88L317.16-1.88Q317.16-0.80 317.76-0.80L317.76-0.80L317.76-0.80Q318.04-0.80 318.40-0.96L318.40-0.96L318.40-0.96Q321.16-2.16 325.00-6.56L325.00-6.56L325.00-6.56Q325.24-6.84 325.48-6.84L325.48-6.84L325.48-6.84Q325.72-6.84 325.72-6.58L325.72-6.58L325.72-6.58Q325.72-6.32 325.44-6L325.44-6L325.44-6Q323.72-4 321.40-1.98L321.40-1.98L321.40-1.98Q319.08 0.04 318.12 0.24ZM332.60-16.32L332.60-16.32Q333.20-16.32 333.74-15.94L333.74-15.94L333.74-15.94Q334.28-15.56 334.28-15.04L334.28-15.04L334.28-15.04Q334.28-14.52 333.78-14.14L333.78-14.14L333.78-14.14Q333.28-13.76 332.68-13.76L332.68-13.76L332.68-13.76Q332.08-13.76 331.58-14.20L331.58-14.20L331.58-14.20Q331.08-14.64 331.08-15.20L331.08-15.20L331.08-15.20Q331.08-16.32 332.60-16.32L332.60-16.32ZM325.36 0.44L325.36 0.44L325.36 0.44Q323.32 0.44 323.32-2.20L323.32-2.20L323.32-2.20Q323.32-4.36 325.68-8.18L325.68-8.18L325.68-8.18Q328.04-12 329.48-12.04L329.48-12.04L329.48-12.04Q329.88-12.04 330.38-11.72L330.38-11.72L330.38-11.72Q330.88-11.40 330.88-11.08L330.88-11.08L330.88-11.08Q330.68-10.80 330.40-10.46L330.40-10.46L330.40-10.46Q330.12-10.12 329.80-9.72L329.80-9.72L329.80-9.72Q329.48-9.32 328.92-8.58L328.92-8.58L328.92-8.58Q328.36-7.84 327.84-7.16L327.84-7.16L327.84-7.16Q324.84-3.28 324.84-1.82L324.84-1.82L324.84-1.82Q324.84-0.36 325.84-0.36L325.84-0.36L325.84-0.36Q326.68-0.36 328.12-1.28L328.12-1.28L328.12-1.28Q331.48-3.36 333.44-5.84L333.44-5.84L333.44-5.84Q334.16-6.76 334.42-6.76L334.42-6.76L334.42-6.76Q334.68-6.76 334.68-6.44L334.68-6.44L334.68-6.44Q334.68-6.12 333.76-5.16L333.76-5.16L333.76-5.16Q332.84-4.20 332.30-3.64L332.30-3.64L332.30-3.64Q331.76-3.08 331.56-2.90L331.56-2.90L331.56-2.90Q331.36-2.72 330.82-2.22L330.82-2.22L330.82-2.22Q330.28-1.72 330.00-1.52L330.00-1.52L330.00-1.52Q329.72-1.32 329.20-0.92L329.20-0.92L329.20-0.92Q328.68-0.52 328.28-0.34L328.28-0.34L328.28-0.34Q327.88-0.16 327.36 0.08L327.36 0.08L327.36 0.08Q326.52 0.44 325.36 0.44ZM341.12 0.20L341.12 0.20L341.12 0.20Q338.12 0.20 338.12-3.12L338.12-3.12L338.12-3.12Q338.12-4.80 339-6.80L339-6.80L339-6.80Q339.88-8.80 340.92-10.16L340.92-10.16L340.92-10.16Q340.72-10.12 340.40-10.12L340.40-10.12L340.40-10.12Q339.44-10.12 338.80-11.48L338.80-11.48L335.84-7.64L335.84-7.64Q333.36-4.56 332.96-4.56L332.96-4.56L332.96-4.56Q332.76-4.56 332.76-4.72L332.76-4.72L332.76-4.72Q332.76-5.12 333.44-5.88L333.44-5.88L333.44-5.88Q336.92-9.92 338.36-12.72L338.36-12.72L338.36-12.72Q339.28-16.20 340.68-16.20L340.68-16.20L340.68-16.20Q341.60-16.20 341.60-15.40L341.60-15.40L341.60-15.40Q341.60-14.60 340.60-13.36L340.60-13.36L339.64-12.08L339.64-12.08Q339.64-11.24 340.88-11.24L340.88-11.24L340.88-11.24Q341.60-11.24 342.48-11.76L342.48-11.76L343.52-12.40L343.52-12.40Q343.60-12.44 343.92-12.44L343.92-12.44L343.92-12.44Q344.24-12.44 344.60-12.04L344.60-12.04L344.60-12.04Q344.96-11.64 344.84-11.32L344.84-11.32L342.08-7.84L342.08-7.84Q339.52-4.56 339.52-2.66L339.52-2.66L339.52-2.66Q339.52-0.76 341.28-0.76L341.28-0.76L341.28-0.76Q343.12-0.76 345.80-2.72L345.80-2.72L345.80-2.72Q347.40-3.88 348.72-5.32L348.72-5.32L348.72-5.32Q349.96-6.76 350.08-6.76L350.08-6.76L350.08-6.76Q350.36-6.76 350.36-6.46L350.36-6.46L350.36-6.46Q350.36-6.16 350-5.76L350-5.76L348.72-4.32L348.72-4.32Q347.64-3.20 346.32-2.16L346.32-2.16L346.32-2.16Q343.16 0.20 341.12 0.20ZM350.76 0.52L350.76 0.52L350.76 0.52Q350.32 0.52 349.96 0.40L349.96 0.40L349.96 0.40Q347.40-0.32 347.40-2.48L347.40-2.48L347.40-2.48Q347.40-5.28 350.92-8.96L350.92-8.96L350.92-8.96Q354.44-12.64 357.24-12.64L357.24-12.64L357.24-12.64Q358.16-12.64 358.74-12.14L358.74-12.14L358.74-12.14Q359.32-11.64 359.32-10.92L359.32-10.92L359.32-10.92Q359.32-8.68 355.94-6.64L355.94-6.64L355.94-6.64Q352.56-4.60 350.44-4.60L350.44-4.60L350.44-4.60Q350.12-4.60 349.88-4.68L349.88-4.68L349.88-4.68Q349.28-3.60 349.28-2.40L349.28-2.40L349.28-2.40Q349.28-0.32 351.26-0.32L351.26-0.32L351.26-0.32Q353.24-0.32 356.40-3L356.40-3L356.40-3Q358.84-4.96 360.56-7.16L360.56-7.16L360.56-7.16Q360.92-7.64 361.18-7.64L361.18-7.64L361.18-7.64Q361.44-7.64 361.44-7.40L361.44-7.40L361.44-7.40Q361.44-7.16 361.12-6.72L361.12-6.72L361.12-6.72Q358.96-3.88 355.92-1.68L355.92-1.68L355.92-1.68Q352.88 0.52 350.76 0.52ZM358.32-11L358.32-11L358.32-11Q358.32-11.48 357.30-11.48L357.30-11.48L357.30-11.48Q356.28-11.48 354.40-9.92L354.40-9.92L354.40-9.92Q351.88-7.84 350.48-5.56L350.48-5.56L350.48-5.56Q350.72-5.48 351.00-5.48L351.00-5.48L351.00-5.48Q352.52-5.48 355.06-7.10L355.06-7.10L355.06-7.10Q357.60-8.72 358.24-10.64L358.24-10.64L358.24-10.64Q358.32-10.84 358.32-11ZM367.16 0.20L367.16 0.20L367.16 0.20Q364.16 0.20 364.16-3.12L364.16-3.12L364.16-3.12Q364.16-4.80 365.04-6.80L365.04-6.80L365.04-6.80Q365.92-8.80 366.96-10.16L366.96-10.16L366.96-10.16Q366.76-10.12 366.44-10.12L366.44-10.12L366.44-10.12Q365.48-10.12 364.84-11.48L364.84-11.48L361.88-7.64L361.88-7.64Q359.40-4.56 359.00-4.56L359.00-4.56L359.00-4.56Q358.80-4.56 358.80-4.72L358.80-4.72L358.80-4.72Q358.80-5.12 359.48-5.88L359.48-5.88L359.48-5.88Q362.96-9.92 364.40-12.72L364.40-12.72L364.40-12.72Q365.32-16.20 366.72-16.20L366.72-16.20L366.72-16.20Q367.64-16.20 367.64-15.40L367.64-15.40L367.64-15.40Q367.64-14.60 366.64-13.36L366.64-13.36L365.68-12.08L365.68-12.08Q365.68-11.24 366.92-11.24L366.92-11.24L366.92-11.24Q367.64-11.24 368.52-11.76L368.52-11.76L369.56-12.40L369.56-12.40Q369.64-12.44 369.96-12.44L369.96-12.44L369.96-12.44Q370.28-12.44 370.64-12.04L370.64-12.04L370.64-12.04Q371.00-11.64 370.88-11.32L370.88-11.32L368.12-7.84L368.12-7.84Q365.56-4.56 365.56-2.66L365.56-2.66L365.56-2.66Q365.56-0.76 367.32-0.76L367.32-0.76L367.32-0.76Q369.16-0.76 371.84-2.72L371.84-2.72L371.84-2.72Q373.44-3.88 374.76-5.32L374.76-5.32L374.76-5.32Q376.00-6.76 376.12-6.76L376.12-6.76L376.12-6.76Q376.40-6.76 376.40-6.46L376.40-6.46L376.40-6.46Q376.40-6.16 376.04-5.76L376.04-5.76L374.76-4.32L374.76-4.32Q373.68-3.20 372.36-2.16L372.36-2.16L372.36-2.16Q369.20 0.20 367.16 0.20Z" fill="#000000"></path></g></g><style>text {
  font-size: 64px;
  font-family: Arial Black;
  dominant-baseline: central;
  text-anchor: middle;
}</style></svg>